<?xml version="1.0" standalone="no"?>
<!DOCTYPE svg PUBLIC "-//W3C//DTD SVG 20010904//EN"
 "http://www.w3.org/TR/2001/REC-SVG-20010904/DTD/svg10.dtd">
<svg version="1.0" xmlns="http://www.w3.org/2000/svg"
 width="500.000000pt" height="500.000000pt" viewBox="0 0 500.000000 500.000000"
 preserveAspectRatio="xMidYMid meet">

<g transform="translate(0.000000,500.000000) scale(0.100000,-0.100000)"
fill="#000000" stroke="none">
<path d="M2205 4885 c-288 -41 -557 -126 -815 -257 -146 -74 -308 -184 -446
-301 -172 -146 -304 -295 -436 -491 -77 -114 -189 -326 -243 -458 -31 -76 -97
-305 -120 -414 -67 -322 -59 -702 20 -1017 55 -214 97 -328 191 -519 143 -288
369 -578 594 -759 30 -24 65 -53 77 -63 69 -59 278 -188 413 -255 242 -120
524 -204 790 -236 620 -74 1272 116 1775 519 270 215 482 479 637 792 98 196
144 322 196 539 72 293 83 621 31 925 -23 133 -90 376 -139 500 -31 79 -156
324 -196 384 -19 28 -51 76 -71 106 -96 145 -290 354 -448 481 -77 62 -101 80
-245 176 -68 46 -280 153 -387 196 -80 32 -314 101 -418 122 -215 45 -557 58
-760 30z m971 -736 c69 -13 146 -52 179 -91 l23 -27 18 21 c11 11 44 37 74 57
l55 36 115 0 c133 0 164 -11 242 -90 73 -73 93 -122 93 -230 0 -138 -9 -152
-264 -404 -119 -117 -242 -238 -273 -269 l-57 -55 -49 49 c-27 27 -125 121
-218 209 -331 314 -351 342 -342 494 5 86 14 107 78 184 55 67 110 103 175
115 69 13 83 14 151 1z m-1182 -57 c70 -33 178 -132 232 -212 43 -65 91 -174
115 -266 44 -163 35 -469 -17 -600 -13 -33 -24 -64 -24 -68 0 -14 58 -133 86
-177 16 -24 35 -57 44 -73 23 -41 188 -224 236 -260 22 -17 85 -65 140 -106
54 -41 132 -99 172 -130 40 -30 91 -68 112 -83 56 -40 190 -191 228 -258 41
-72 69 -163 83 -269 6 -47 13 -90 15 -97 6 -25 154 -48 309 -48 127 0 163 4
235 24 47 13 103 33 125 44 59 29 283 180 344 232 59 51 75 55 92 23 11 -20 7
-26 -37 -66 -27 -24 -60 -51 -74 -60 -14 -9 -56 -39 -95 -68 -125 -92 -263
-158 -400 -192 -95 -23 -323 -22 -418 1 -38 9 -72 17 -77 17 -4 0 -11 -17 -15
-37 -22 -123 -109 -266 -207 -344 -169 -134 -352 -191 -532 -168 -105 14 -179
53 -262 138 -81 84 -129 174 -150 283 -25 131 -7 237 52 306 46 55 172 138
237 157 66 19 170 19 236 -1 73 -21 273 -101 407 -162 62 -28 124 -54 139 -58
l27 -7 -7 59 c-26 215 -154 405 -381 566 -174 122 -215 152 -278 200 -93 72
-266 242 -266 262 0 3 -17 32 -37 64 -21 32 -56 97 -78 144 -22 48 -45 87 -51
88 -6 0 -19 -10 -30 -21 -10 -12 -46 -35 -79 -50 -84 -40 -163 -40 -226 -1
-63 40 -104 92 -130 162 l-22 60 -58 0 c-51 0 -58 -3 -65 -22 -4 -13 -26 -51
-50 -85 -64 -91 -100 -170 -124 -266 -33 -140 -39 -216 -40 -507 -1 -552 -53
-728 -240 -806 -19 -9 -73 -22 -119 -30 -97 -17 -176 -48 -196 -78 -45 -63 14
-153 113 -175 209 -44 476 46 682 232 l54 48 -17 29 c-36 60 -66 160 -78 259
-11 88 -11 118 3 212 19 137 60 224 131 283 41 35 55 40 108 44 l59 4 49 -48
c113 -114 125 -301 34 -508 -39 -87 -88 -169 -140 -233 -32 -40 -43 -61 -39
-76 8 -32 95 -126 189 -204 45 -37 84 -70 87 -74 3 -3 15 -11 28 -18 12 -6 22
-18 22 -27 0 -21 -29 -29 -52 -15 -11 7 -37 21 -58 32 -54 28 -225 183 -252
228 -12 20 -23 38 -24 40 -2 2 -26 -17 -54 -42 -123 -111 -295 -204 -430 -233
-116 -25 -286 -25 -360 -1 -128 43 -184 161 -129 274 29 59 82 88 231 124 128
32 198 64 223 102 22 34 55 134 67 202 5 33 13 236 18 450 7 380 8 392 34 485
30 107 106 271 159 344 20 28 34 52 32 54 -2 3 -45 8 -96 13 -277 26 -531 200
-633 435 -50 115 -53 190 -11 276 49 101 111 128 285 127 139 -1 152 3 315
110 150 98 267 133 422 127 66 -3 95 -10 147 -34z"/>
<path d="M3032 4083 c-107 -32 -194 -145 -196 -253 -1 -89 34 -146 166 -275
310 -302 367 -355 378 -355 24 0 453 424 493 486 27 44 48 131 40 167 -19 82
-29 104 -66 144 -55 60 -107 85 -188 91 -94 6 -130 -9 -213 -90 -63 -62 -72
-68 -81 -52 -18 33 -99 104 -141 124 -59 27 -129 32 -192 13z"/>
<path d="M1695 4036 c-98 -22 -175 -54 -229 -94 -144 -107 -198 -124 -384
-120 -98 2 -111 0 -145 -21 -50 -30 -77 -86 -77 -154 0 -103 56 -209 172 -329
98 -100 233 -169 413 -208 62 -14 297 -41 303 -35 3 2 -3 42 -12 88 -9 47 -19
114 -23 150 -5 59 -4 66 16 76 40 22 57 0 65 -80 16 -173 68 -332 128 -389 43
-41 105 -54 165 -34 26 9 62 26 79 39 46 35 89 127 105 225 19 116 17 325 -4
427 -18 90 -71 212 -112 258 -15 17 -37 47 -50 67 -28 42 -69 75 -142 113 -64
33 -176 41 -268 21z"/>
<path d="M1823 2081 c-36 -22 -83 -113 -104 -201 -28 -118 -10 -308 41 -423
l22 -49 16 24 c8 12 28 37 43 55 113 132 171 372 125 516 -30 91 -78 117 -143
78z"/>
<path d="M2572 1654 c-70 -19 -118 -50 -175 -114 -49 -54 -67 -99 -67 -165 0
-104 72 -269 145 -333 24 -21 74 -54 111 -73 64 -32 74 -34 168 -34 112 0 161
13 286 73 92 44 197 142 245 227 34 60 69 170 60 186 -3 4 -54 26 -113 49 -59
23 -136 56 -172 73 -175 81 -321 128 -397 126 -21 0 -62 -7 -91 -15z"/>
</g>
</svg>
